<?xml version="1.0" encoding="UTF-8" standalone="no"?><svg xmlns="http://www.w3.org/2000/svg" xmlns:xlink="http://www.w3.org/1999/xlink" contentStyleType="text/css" height="1194px" preserveAspectRatio="none" style="width:549px;height:1194px;background:#FFFFFF;" version="1.1" viewBox="0 0 549 1194" width="549px" zoomAndPan="magnify"><defs/><g><!--MD5=[8d95b8d23e0fc13c4452cf955652dabd]
cluster Acesso--><g id="cluster_Acesso"><path d="M420.5,465.64 L479.5,465.64 A3.75,3.75 0 0 1 482,468.14 L489,487.9369 L539.5,487.9369 A2.5,2.5 0 0 1 542,490.4369 L542,608.14 A2.5,2.5 0 0 1 539.5,610.64 L420.5,610.64 A2.5,2.5 0 0 1 418,608.14 L418,468.14 A2.5,2.5 0 0 1 420.5,465.64 " fill="none" style="stroke:#000000;stroke-width:1.5;"/><line style="stroke:#000000;stroke-width:1.5;" x1="418" x2="489" y1="487.9369" y2="487.9369"/><text fill="#000000" font-family="sans-serif" font-size="14" font-weight="bold" lengthAdjust="spacing" textLength="58" x="422" y="480.6351">Acesso</text></g><!--MD5=[6a8745c9dc38cdf83476d8ef0e2c1db5]
cluster UE--><g id="cluster_UE"><path d="M147.5,130.64 L168.5,130.64 A3.75,3.75 0 0 1 171,133.14 L178,152.9369 L355.5,152.9369 A2.5,2.5 0 0 1 358,155.4369 L358,492.14 A2.5,2.5 0 0 1 355.5,494.64 L147.5,494.64 A2.5,2.5 0 0 1 145,492.14 L145,133.14 A2.5,2.5 0 0 1 147.5,130.64 " fill="none" style="stroke:#000000;stroke-width:1.5;"/><line style="stroke:#000000;stroke-width:1.5;" x1="145" x2="178" y1="152.9369" y2="152.9369"/><text fill="#000000" font-family="sans-serif" font-size="14" font-weight="bold" lengthAdjust="spacing" textLength="20" x="149" y="145.6351">UE</text></g><!--MD5=[07d646397eca53d2b1a0250d70f3775a]
cluster Business Inteligence--><g id="cluster_Business Inteligence"><path d="M115.5,518.64 L279.5,518.64 A3.75,3.75 0 0 1 282,521.14 L289,540.9369 L387.5,540.9369 A2.5,2.5 0 0 1 390,543.4369 L390,797.14 A2.5,2.5 0 0 1 387.5,799.64 L115.5,799.64 A2.5,2.5 0 0 1 113,797.14 L113,521.14 A2.5,2.5 0 0 1 115.5,518.64 " fill="none" style="stroke:#000000;stroke-width:1.5;"/><line style="stroke:#000000;stroke-width:1.5;" x1="113" x2="289" y1="540.9369" y2="540.9369"/><text fill="#000000" font-family="sans-serif" font-size="14" font-weight="bold" lengthAdjust="spacing" textLength="163" x="117" y="533.6351">Business Inteligence</text></g><!--MD5=[aa21c63c84d382745d88176a7afeaae4]
cluster Banco de dados de atividades--><g id="cluster_Banco de dados de atividades"><path d="M128,823.64 L365,823.64 A3.75,3.75 0 0 1 367.5,826.14 L374.5,845.9369 L375,845.9369 A2.5,2.5 0 0 1 377.5,848.4369 L377.5,1185.14 A2.5,2.5 0 0 1 375,1187.64 L128,1187.64 A2.5,2.5 0 0 1 125.5,1185.14 L125.5,826.14 A2.5,2.5 0 0 1 128,823.64 " fill="none" style="stroke:#000000;stroke-width:1.5;"/><line style="stroke:#000000;stroke-width:1.5;" x1="125.5" x2="374.5" y1="845.9369" y2="845.9369"/><text fill="#000000" font-family="sans-serif" font-size="14" font-weight="bold" lengthAdjust="spacing" textLength="236" x="129.5" y="838.6351">Banco de dados de atividades</text></g><g id="elem_login"><ellipse cx="480.2231" cy="579.6885" fill="#F1F1F1" rx="37.7231" ry="14.5485" style="stroke:#181818;stroke-width:0.5;"/><text fill="#000000" font-family="sans-serif" font-size="14" lengthAdjust="spacing" textLength="37" x="460.1116" y="583.0712">Login</text></g><g id="elem_logout"><ellipse cx="479.8836" cy="515.7878" fill="#F1F1F1" rx="45.8836" ry="14.6478" style="stroke:#181818;stroke-width:0.5;"/><text fill="#000000" font-family="sans-serif" font-size="14" lengthAdjust="spacing" textLength="48" x="452.8836" y="519.5354">Logout</text></g><g id="elem_dados_ge"><ellipse cx="251.6812" cy="278.6873" fill="#F1F1F1" rx="90.6812" ry="26.0473" style="stroke:#181818;stroke-width:0.5;"/><text fill="#000000" font-family="sans-serif" font-size="14" lengthAdjust="spacing" textLength="67" x="218.1812" y="273.3855">Dados do</text><text fill="#000000" font-family="sans-serif" font-size="14" lengthAdjust="spacing" textLength="112" x="195.6812" y="289.6824">Grupo Escoteiro</text></g><g id="elem_dados_secao"><ellipse cx="251.6543" cy="365.6873" fill="#F1F1F1" rx="58.1543" ry="26.0473" style="stroke:#181818;stroke-width:0.5;"/><text fill="#000000" font-family="sans-serif" font-size="14" lengthAdjust="spacing" textLength="66" x="218.6543" y="360.3855">Dados da</text><text fill="#000000" font-family="sans-serif" font-size="14" lengthAdjust="spacing" textLength="42" x="230.6543" y="376.6824">seção</text></g><g id="elem_dados_subsecao"><ellipse cx="251.5685" cy="452.6873" fill="#F1F1F1" rx="59.5685" ry="26.0473" style="stroke:#181818;stroke-width:0.5;"/><text fill="#000000" font-family="sans-serif" font-size="14" lengthAdjust="spacing" textLength="66" x="218.5685" y="447.3855">Dados da</text><text fill="#000000" font-family="sans-serif" font-size="14" lengthAdjust="spacing" textLength="68" x="217.5685" y="463.6824">subseção</text></g><g id="elem_dados_jovem"><ellipse cx="251.3614" cy="191.6873" fill="#F1F1F1" rx="58.8614" ry="26.0473" style="stroke:#181818;stroke-width:0.5;"/><text fill="#000000" font-family="sans-serif" font-size="14" lengthAdjust="spacing" textLength="67" x="217.8614" y="186.3855">Dados do</text><text fill="#000000" font-family="sans-serif" font-size="14" lengthAdjust="spacing" textLength="41" x="230.8614" y="202.6824">jovem</text></g><g id="elem_timeline_secao"><ellipse cx="251.5118" cy="667.5424" fill="#F1F1F1" rx="122.5118" ry="26.9024" style="stroke:#181818;stroke-width:0.5;"/><text fill="#000000" font-family="sans-serif" font-size="14" lengthAdjust="spacing" textLength="160" x="168.5118" y="663.1415">Timeline de conquistas</text><text fill="#000000" font-family="sans-serif" font-size="14" lengthAdjust="spacing" textLength="63" x="217.0118" y="679.4384">da seção</text></g><g id="elem_timeline_jovem"><ellipse cx="251.5118" cy="756.5424" fill="#F1F1F1" rx="122.5118" ry="26.9024" style="stroke:#181818;stroke-width:0.5;"/><text fill="#000000" font-family="sans-serif" font-size="14" lengthAdjust="spacing" textLength="160" x="168.5118" y="752.1415">Timeline de conquistas</text><text fill="#000000" font-family="sans-serif" font-size="14" lengthAdjust="spacing" textLength="63" x="217.0118" y="768.4384">do jovem</text></g><g id="elem_analise_historica_jovem"><ellipse cx="251.6007" cy="579.7975" fill="#F1F1F1" rx="91.1007" ry="26.1575" style="stroke:#181818;stroke-width:0.5;"/><text fill="#000000" font-family="sans-serif" font-size="14" lengthAdjust="spacing" textLength="112" x="192.6007" y="575.3966">Análise Histórica</text><text fill="#000000" font-family="sans-serif" font-size="14" lengthAdjust="spacing" textLength="63" x="217.1007" y="591.6935">do jovem</text></g><g id="elem_cadastro_atividades"><ellipse cx="251.3823" cy="971.6873" fill="#F1F1F1" rx="70.8823" ry="26.0473" style="stroke:#181818;stroke-width:0.5;"/><text fill="#000000" font-family="sans-serif" font-size="14" lengthAdjust="spacing" textLength="84" x="209.3823" y="966.3855">Cadastro de</text><text fill="#000000" font-family="sans-serif" font-size="14" lengthAdjust="spacing" textLength="69" x="216.8823" y="982.6824">atividades</text></g><g id="elem_cadastro_encontros"><ellipse cx="251.3823" cy="1058.6873" fill="#F1F1F1" rx="70.8823" ry="26.0473" style="stroke:#181818;stroke-width:0.5;"/><text fill="#000000" font-family="sans-serif" font-size="14" lengthAdjust="spacing" textLength="84" x="209.3823" y="1053.3855">Cadastro de</text><text fill="#000000" font-family="sans-serif" font-size="14" lengthAdjust="spacing" textLength="71" x="215.8823" y="1069.6824">encontros</text></g><g id="elem_ferramenta_busca"><ellipse cx="251.6073" cy="1145.7462" fill="#F1F1F1" rx="83.1073" ry="26.1062" style="stroke:#181818;stroke-width:0.5;"/><text fill="#000000" font-family="sans-serif" font-size="14" lengthAdjust="spacing" textLength="101" x="198.1073" y="1141.3453">Ferramenta de</text><text fill="#000000" font-family="sans-serif" font-size="14" lengthAdjust="spacing" textLength="42" x="227.6073" y="1157.6422">busca</text></g><g id="elem_sistema_pontuacao"><ellipse cx="251.2609" cy="884.6873" fill="#F1F1F1" rx="68.7609" ry="26.0473" style="stroke:#181818;stroke-width:0.5;"/><text fill="#000000" font-family="sans-serif" font-size="14" lengthAdjust="spacing" textLength="77" x="210.7609" y="879.3855">Sistema de</text><text fill="#000000" font-family="sans-serif" font-size="14" lengthAdjust="spacing" textLength="74" x="214.2609" y="895.6824">pontuação</text></g><!--MD5=[5295c0bdf0467b1c5e753e12badf3c72]
entity escotista--><g id="elem_escotista"><ellipse cx="37.5" cy="550.14" fill="#F1F1F1" rx="8" ry="8" style="stroke:#181818;stroke-width:0.5;"/><path d="M37.5,558.14 L37.5,585.14 M24.5,566.14 L50.5,566.14 M37.5,585.14 L24.5,600.14 M37.5,585.14 L50.5,600.14 " fill="none" style="stroke:#181818;stroke-width:0.5;"/><text fill="#000000" font-family="sans-serif" font-size="14" lengthAdjust="spacing" textLength="63" x="6" y="614.6351">Escotista</text></g><!--MD5=[b542d946444dc15ae6e5d0296693e652]
link dados_ge to login--><g id="link_dados_ge_login"><path d="M338.55,286.07 C361.22,292.31 383.39,303.14 398,321.64 C429.16,361.12 381.82,505.98 410,547.64 C414.72,554.62 421.37,560.1 428.7,564.41 " fill="none" id="dados_ge-to-login" style="stroke:#181818;stroke-width:1.0;"/><polygon fill="none" points="431.65,558.06,447.01,572.66,425.9,570.82,431.65,558.06" style="stroke:#181818;stroke-width:1.0;"/></g><!--MD5=[4eae0a4e6991c4ce7e5a34839fc71cce]
link dados_secao to login--><g id="link_dados_secao_login"><path d="M309.62,367.6 C340.58,371.86 376.76,382.63 398,408.64 C417.61,432.65 392.21,522.25 410,547.64 C414.83,554.54 421.54,559.98 428.89,564.28 " fill="none" id="dados_secao-to-login" style="stroke:#181818;stroke-width:1.0;"/><polygon fill="none" points="431.84,557.93,447.19,572.53,426.08,570.69,431.84,557.93" style="stroke:#181818;stroke-width:1.0;"/></g><!--MD5=[772267c9266478d4b6027c09c386ad0a]
link dados_subsecao to login--><g id="link_dados_subsecao_login"><path d="M290.33,472.48 C320.34,488.75 362.91,513.03 398,537.64 C403.68,541.63 404.13,543.93 410,547.64 C417.7,552.51 426.26,557.09 434.66,561.17 " fill="none" id="dados_subsecao-to-login" style="stroke:#181818;stroke-width:1.0;"/><polygon fill="none" points="437.62,554.82,452.93,569.46,431.83,567.57,437.62,554.82" style="stroke:#181818;stroke-width:1.0;"/></g><!--MD5=[cde4db59cc8baeaaf423a8d8d397f96e]
link dados_jovem to login--><g id="link_dados_jovem_login"><path d="M310.46,193.27 C341.5,197.44 377.47,208.23 398,234.64 C419.36,262.12 390.71,518.67 410,547.64 C414.67,554.65 421.29,560.16 428.61,564.47 " fill="none" id="dados_jovem-to-login" style="stroke:#181818;stroke-width:1.0;"/><polygon fill="none" points="431.56,558.12,446.92,572.71,425.81,570.88,431.56,558.12" style="stroke:#181818;stroke-width:1.0;"/></g><!--MD5=[eb12257e978ce6e38ad347ea691ddaa6]
link timeline_secao to login--><g id="link_timeline_secao_login"><path d="M329.73,646.71 C352.06,639.86 376.27,631.67 398,622.64 C412.42,616.64 427.68,608.93 441.02,601.69 " fill="none" id="timeline_secao-to-login" style="stroke:#181818;stroke-width:1.0;"/><polygon fill="none" points="438.01,595.36,458.88,591.69,444.85,607.58,438.01,595.36" style="stroke:#181818;stroke-width:1.0;"/></g><!--MD5=[3d96510650b87b9986ca4ea1a8f46df3]
link timeline_jovem to login--><g id="link_timeline_jovem_login"><path d="M344.74,739.07 C363.61,732.58 382.44,723.72 398,711.64 C430.97,686.04 453.74,642.94 466.56,612.99 " fill="none" id="timeline_jovem-to-login" style="stroke:#181818;stroke-width:1.0;"/><polygon fill="none" points="460.09,610.32,473.99,594.33,473.09,615.5,460.09,610.32" style="stroke:#181818;stroke-width:1.0;"/></g><!--MD5=[14bd1d52298c62fc8c80e11f04b1b6b6]
link analise_historica_jovem to login--><g id="link_analise_historica_jovem_login"><path d="M342.67,579.64 C369.44,579.64 398.01,579.64 422.04,579.64 " fill="none" id="analise_historica_jovem-to-login" style="stroke:#181818;stroke-width:1.0;"/><polygon fill="none" points="422.24,572.64,442.24,579.64,422.24,586.64,422.24,572.64" style="stroke:#181818;stroke-width:1.0;"/></g><!--MD5=[8d2003faf18d69d1049632b936ebe036]
link cadastro_atividades to login--><g id="link_cadastro_atividades_login"><path d="M320.75,965.78 C348.23,960.03 378.06,948.92 398,927.64 C440.71,882.06 466.35,692.84 475.34,614.18 " fill="none" id="cadastro_atividades-to-login" style="stroke:#181818;stroke-width:1.0;"/><polygon fill="none" points="468.4,613.28,477.54,594.17,482.32,614.81,468.4,613.28" style="stroke:#181818;stroke-width:1.0;"/></g><!--MD5=[0d9f93c43dbc307ddf5445bf99944c83]
link cadastro_encontros to login--><g id="link_cadastro_encontros_login"><path d="M321.22,1053.2 C348.77,1047.53 378.54,1036.36 398,1014.64 C451.11,955.37 471.31,707.07 477.08,614.57 " fill="none" id="cadastro_encontros-to-login" style="stroke:#181818;stroke-width:1.0;"/><polygon fill="none" points="470.11,613.96,478.26,594.4,484.08,614.77,470.11,613.96" style="stroke:#181818;stroke-width:1.0;"/></g><!--MD5=[19c57395f1b2830051e1b718d1536b2e]
link ferramenta_busca to login--><g id="link_ferramenta_busca_login"><path d="M331.7,1138.74 C356.22,1132.7 381.18,1121.87 398,1102.64 C462.1,1029.34 475.58,718.86 478.32,614.23 " fill="none" id="ferramenta_busca-to-login" style="stroke:#181818;stroke-width:1.0;"/><polygon fill="none" points="471.33,614.05,478.78,594.21,485.32,614.37,471.33,614.05" style="stroke:#181818;stroke-width:1.0;"/></g><!--MD5=[425e1a496b183326f63666041d286380]
link sistema_pontuacao to login--><g id="link_sistema_pontuacao_login"><path d="M301.25,866.38 C332.69,852.38 372.35,830.25 398,799.64 C444.17,744.54 465.19,660.74 473.78,614.08 " fill="none" id="sistema_pontuacao-to-login" style="stroke:#181818;stroke-width:1.0;"/><polygon fill="none" points="466.91,612.76,477.1,594.18,480.72,615.06,466.91,612.76" style="stroke:#181818;stroke-width:1.0;"/></g><!--MD5=[c265cb76565636a54268ba80a1272cda]
link escotista to login--><g id="link_escotista_login"><path d="M38.36,541.59 C38.92,446.06 46.14,200.09 105,149.64 C203.87,64.89 304.54,58.96 398,149.64 C413.88,165.04 397.82,529.18 410,547.64 C417.38,558.83 429.76,566.18 442.01,570.97 " fill="none" id="escotista-to-login" style="stroke:#181818;stroke-width:1.0;"/><polygon fill="#181818" points="446.87,572.75,439.7855,565.9082,442.1727,571.0367,437.0442,573.4239,446.87,572.75" style="stroke:#181818;stroke-width:1.0;"/></g><!--MD5=[ee54f0eed41f30d944a483e77a7e9ce7]
link escotista to logout--><g id="link_escotista_logout"><path d="M40.87,541.29 C48.04,431.37 71.14,121.2 105,91.64 C203.1,6 297.65,8.65 398,91.64 C461.45,144.11 475.65,418.87 478.4,495.67 " fill="none" id="escotista-to-logout" style="stroke:#181818;stroke-width:1.0;"/><polygon fill="#181818" points="478.58,500.86,482.2693,491.7282,478.4087,495.8629,474.274,492.0023,478.58,500.86" style="stroke:#181818;stroke-width:1.0;"/></g><!--MD5=[cd32dfdc0c61f7a74961361b140048e6]
link escotista to dados_ge--><g id="link_escotista_dados_ge"><path d="M43.65,541.58 C53.03,477.73 74.76,352.96 105,321.64 C120.16,305.94 140.75,295.9 161.66,289.5 " fill="none" id="escotista-to-dados_ge" style="stroke:#181818;stroke-width:1.0;"/><polygon fill="#181818" points="166.7,288.03,156.94,286.71,161.9,289.43,159.18,294.39,166.7,288.03" style="stroke:#181818;stroke-width:1.0;"/></g><!--MD5=[a6b324f415ee1310b97f1f46b138e560]
link escotista to dados_secao--><g id="link_escotista_dados_secao"><path d="M43.45,541.53 C50.48,502.77 67.02,443.57 105,408.64 C127.91,387.57 160.67,376.79 189.3,371.29 " fill="none" id="escotista-to-dados_secao" style="stroke:#181818;stroke-width:1.0;"/><polygon fill="#181818" points="194.23,370.39,184.6567,368.0767,189.3118,371.2907,186.0978,375.9459,194.23,370.39" style="stroke:#181818;stroke-width:1.0;"/></g><!--MD5=[c323262122ba1bd084a6e010107b2c40]
link escotista to dados_subsecao--><g id="link_escotista_dados_subsecao"><path d="M69.15,559.97 C80.38,552.85 93.21,544.8 105,537.64 C140.24,516.23 180.79,492.62 210.11,475.73 " fill="none" id="escotista-to-dados_subsecao" style="stroke:#181818;stroke-width:1.0;"/><polygon fill="#181818" points="214.72,473.08,204.9259,474.1174,210.3903,475.5807,208.927,481.045,214.72,473.08" style="stroke:#181818;stroke-width:1.0;"/></g><!--MD5=[332595020d17a6172ad9ef7b7f129e9e]
link escotista to dados_jovem--><g id="link_escotista_dados_jovem"><path d="M40.94,541.42 C46.83,461.28 64.42,279.36 105,234.64 C125.92,211.59 158.52,200.66 187.57,195.57 " fill="none" id="escotista-to-dados_jovem" style="stroke:#181818;stroke-width:1.0;"/><polygon fill="#181818" points="192.57,194.74,183.0383,192.2606,187.6369,195.555,184.3424,200.1536,192.57,194.74" style="stroke:#181818;stroke-width:1.0;"/></g><!--MD5=[8e1a523088a1a5017fa2a44a8f89922c]
link escotista to timeline_secao--><g id="link_escotista_timeline_secao"><path d="M69.28,602.04 C80.19,609.3 92.79,616.94 105,622.64 C124.18,631.6 145.6,639.36 165.98,645.79 " fill="none" id="escotista-to-timeline_secao" style="stroke:#181818;stroke-width:1.0;"/><polygon fill="#181818" points="170.86,647.31,163.4561,640.8152,166.0861,645.8235,161.0777,648.4535,170.86,647.31" style="stroke:#181818;stroke-width:1.0;"/></g><!--MD5=[11e6afa1a1a3f623f4dfbb88d8a2bf42]
link escotista to timeline_jovem--><g id="link_escotista_timeline_jovem"><path d="M48.74,617.8 C58.55,647.37 76.2,687.28 105,711.64 C118.38,722.96 134.58,731.43 151.25,737.77 " fill="none" id="escotista-to-timeline_jovem" style="stroke:#181818;stroke-width:1.0;"/><polygon fill="#181818" points="155.96,739.5,148.9006,732.6323,151.269,737.7695,146.1318,740.1379,155.96,739.5" style="stroke:#181818;stroke-width:1.0;"/></g><!--MD5=[32816bac71ec3794d60f928d066830c2]
link escotista to analise_historica_jovem--><g id="link_escotista_analise_historica_jovem"><path d="M69.33,579.64 C92.02,579.64 124.17,579.64 155.11,579.64 " fill="none" id="escotista-to-analise_historica_jovem" style="stroke:#181818;stroke-width:1.0;"/><polygon fill="#181818" points="160.46,579.64,151.46,575.64,155.46,579.64,151.46,583.64,160.46,579.64" style="stroke:#181818;stroke-width:1.0;"/></g><!--MD5=[e4b61ec747a79ee3fc18d54d48f30202]
link escotista to cadastro_atividades--><g id="link_escotista_cadastro_atividades"><path d="M40.9,617.86 C46.71,698.49 64.2,882.33 105,927.64 C123.29,947.96 150.61,959.04 176.64,965.03 " fill="none" id="escotista-to-cadastro_atividades" style="stroke:#181818;stroke-width:1.0;"/><polygon fill="#181818" points="181.83,966.16,173.8957,960.325,176.9461,965.089,172.1821,968.1393,181.83,966.16" style="stroke:#181818;stroke-width:1.0;"/></g><!--MD5=[60779a6fa2c7b20d9aaadef70c124d9f]
link escotista to cadastro_encontros--><g id="link_escotista_cadastro_encontros"><path d="M39.27,617.86 C41.94,712.72 53.76,955.55 105,1014.64 C123.07,1035.47 150.63,1046.63 176.92,1052.54 " fill="none" id="escotista-to-cadastro_encontros" style="stroke:#181818;stroke-width:1.0;"/><polygon fill="#181818" points="181.81,1053.58,173.8433,1047.7894,176.9202,1052.5363,172.1733,1055.6131,181.81,1053.58" style="stroke:#181818;stroke-width:1.0;"/></g><!--MD5=[d20bf58bad7e175dccc9c65fbf9d80bb]
link escotista to ferramenta_busca--><g id="link_escotista_ferramenta_busca"><path d="M38.14,617.91 C37.89,725.85 42.87,1029.62 105,1102.64 C120.46,1120.81 143.19,1131.5 166.11,1137.74 " fill="none" id="escotista-to-ferramenta_busca" style="stroke:#181818;stroke-width:1.0;"/><polygon fill="#181818" points="171,1139,163.2938,1132.867,166.1604,1137.7437,161.2837,1140.6103,171,1139" style="stroke:#181818;stroke-width:1.0;"/></g><!--MD5=[5168c43b18685619ee7ce31b73a15522]
link escotista to sistema_pontuacao--><g id="link_escotista_sistema_pontuacao"><path d="M41.55,617.75 C47.09,664.97 62.5,745.75 105,799.64 C128.39,829.29 165.19,850.65 195.92,864.55 " fill="none" id="escotista-to-sistema_pontuacao" style="stroke:#181818;stroke-width:1.0;"/><polygon fill="#181818" points="200.8,866.71,194.196,859.4033,196.2298,864.682,190.9511,866.7157,200.8,866.71" style="stroke:#181818;stroke-width:1.0;"/></g><!--MD5=[53abf9a1f3faad1841356ce02d445099]
@startuml escoteirando_portal_uc
left to right direction
:Escotista: as escotista

package Acesso {
usecase (Login) as login
usecase (Logout) as logout
}
package UE {
    usecase (Dados do\nGrupo Escoteiro) as dados_ge
usecase (Dados da\nseção) as dados_secao
usecase (Dados da\nsubseção) as dados_subsecao
usecase (Dados do\njovem) as dados_jovem
}
dados_ge - -|> login
dados_secao - -|> login
dados_subsecao - -|> login
dados_jovem - -|> login

package "Business Inteligence" {
    usecase (Timeline de conquistas\nda seção) as timeline_secao
    usecase (Timeline de conquistas\ndo jovem) as timeline_jovem
    usecase (Análise Histórica\ndo jovem) as analise_historica_jovem
}
timeline_secao - -|> login
timeline_jovem - -|> login
analise_historica_jovem - -|> login

package "Banco de dados de atividades" {    
    usecase (Cadastro de\natividades) as cadastro_atividades
    usecase (Cadastro de\nencontros) as cadastro_encontros        
    usecase (Ferramenta de\nbusca) as ferramenta_busca
    usecase (Sistema de \npontuação) as sistema_pontuacao
}
cadastro_atividades - -|> login
cadastro_encontros - -|> login
ferramenta_busca - -|> login
sistema_pontuacao - -|> login

escotista - -> login
escotista - -> logout

escotista - -> dados_ge
escotista - -> dados_secao
escotista - -> dados_subsecao
escotista - -> dados_jovem

escotista - -> timeline_secao
escotista - -> timeline_jovem
escotista - -> analise_historica_jovem

escotista - -> cadastro_atividades
escotista - -> cadastro_encontros
escotista - -> ferramenta_busca
escotista - -> sistema_pontuacao
@enduml

PlantUML version 1.2022.7(Mon Aug 22 14:01:30 BRT 2022)
(GPL source distribution)
Java Runtime: OpenJDK Runtime Environment
JVM: OpenJDK 64-Bit Server VM
Default Encoding: UTF-8
Language: pt
Country: BR
--></g></svg>