<?xml version="1.0" encoding="UTF-8" standalone="no"?><svg xmlns="http://www.w3.org/2000/svg" xmlns:xlink="http://www.w3.org/1999/xlink" contentStyleType="text/css" height="1018px" preserveAspectRatio="none" style="width:549px;height:1018px;background:#FFFFFF;" version="1.1" viewBox="0 0 549 1018" width="549px" zoomAndPan="magnify"><defs/><g><!--MD5=[8d95b8d23e0fc13c4452cf955652dabd]
cluster Acesso--><g id="cluster_Acesso"><path d="M420.5,336.32 L479.5,336.32 A3.75,3.75 0 0 1 482,338.82 L489,358.6169 L539.5,358.6169 A2.5,2.5 0 0 1 542,361.1169 L542,478.82 A2.5,2.5 0 0 1 539.5,481.32 L420.5,481.32 A2.5,2.5 0 0 1 418,478.82 L418,338.82 A2.5,2.5 0 0 1 420.5,336.32 " fill="none" style="stroke:#000000;stroke-width:1.5;"/><line style="stroke:#000000;stroke-width:1.5;" x1="418" x2="489" y1="358.6169" y2="358.6169"/><text fill="#000000" font-family="sans-serif" font-size="14" font-weight="bold" lengthAdjust="spacing" textLength="58" x="422" y="351.3151">Acesso</text></g><!--MD5=[6a8745c9dc38cdf83476d8ef0e2c1db5]
cluster UE--><g id="cluster_UE"><path d="M147.5,128.32 L168.5,128.32 A3.75,3.75 0 0 1 171,130.82 L178,150.6169 L355.5,150.6169 A2.5,2.5 0 0 1 358,153.1169 L358,489.82 A2.5,2.5 0 0 1 355.5,492.32 L147.5,492.32 A2.5,2.5 0 0 1 145,489.82 L145,130.82 A2.5,2.5 0 0 1 147.5,128.32 " fill="none" style="stroke:#000000;stroke-width:1.5;"/><line style="stroke:#000000;stroke-width:1.5;" x1="145" x2="178" y1="150.6169" y2="150.6169"/><text fill="#000000" font-family="sans-serif" font-size="14" font-weight="bold" lengthAdjust="spacing" textLength="20" x="149" y="143.3151">UE</text></g><!--MD5=[07d646397eca53d2b1a0250d70f3775a]
cluster Business Inteligence--><g id="cluster_Business Inteligence"><path d="M115.5,516.32 L279.5,516.32 A3.75,3.75 0 0 1 282,518.82 L289,538.6169 L387.5,538.6169 A2.5,2.5 0 0 1 390,541.1169 L390,794.82 A2.5,2.5 0 0 1 387.5,797.32 L115.5,797.32 A2.5,2.5 0 0 1 113,794.82 L113,518.82 A2.5,2.5 0 0 1 115.5,516.32 " fill="none" style="stroke:#000000;stroke-width:1.5;"/><line style="stroke:#000000;stroke-width:1.5;" x1="113" x2="289" y1="538.6169" y2="538.6169"/><text fill="#000000" font-family="sans-serif" font-size="14" font-weight="bold" lengthAdjust="spacing" textLength="163" x="117" y="531.3151">Business Inteligence</text></g><!--MD5=[aa21c63c84d382745d88176a7afeaae4]
cluster Banco de dados de atividades--><g id="cluster_Banco de dados de atividades"><path d="M128,821.32 L365,821.32 A3.75,3.75 0 0 1 367.5,823.82 L374.5,843.6169 L375,843.6169 A2.5,2.5 0 0 1 377.5,846.1169 L377.5,1008.82 A2.5,2.5 0 0 1 375,1011.32 L128,1011.32 A2.5,2.5 0 0 1 125.5,1008.82 L125.5,823.82 A2.5,2.5 0 0 1 128,821.32 " fill="none" style="stroke:#000000;stroke-width:1.5;"/><line style="stroke:#000000;stroke-width:1.5;" x1="125.5" x2="374.5" y1="843.6169" y2="843.6169"/><text fill="#000000" font-family="sans-serif" font-size="14" font-weight="bold" lengthAdjust="spacing" textLength="236" x="129.5" y="836.3151">Banco de dados de atividades</text></g><g id="elem_login"><ellipse cx="480.2231" cy="450.3685" fill="#F1F1F1" rx="37.7231" ry="14.5485" style="stroke:#181818;stroke-width:0.5;"/><text fill="#000000" font-family="sans-serif" font-size="14" lengthAdjust="spacing" textLength="37" x="460.1116" y="453.7512">Login</text></g><g id="elem_logout"><ellipse cx="479.8836" cy="386.4678" fill="#F1F1F1" rx="45.8836" ry="14.6478" style="stroke:#181818;stroke-width:0.5;"/><text fill="#000000" font-family="sans-serif" font-size="14" lengthAdjust="spacing" textLength="48" x="452.8836" y="390.2154">Logout</text></g><g id="elem_dados_ge"><ellipse cx="251.6812" cy="450.3673" fill="#F1F1F1" rx="90.6812" ry="26.0473" style="stroke:#181818;stroke-width:0.5;"/><text fill="#000000" font-family="sans-serif" font-size="14" lengthAdjust="spacing" textLength="67" x="218.1812" y="445.0655">Dados do</text><text fill="#000000" font-family="sans-serif" font-size="14" lengthAdjust="spacing" textLength="112" x="195.6812" y="461.3624">Grupo Escoteiro</text></g><g id="elem_dados_secao"><ellipse cx="251.6543" cy="189.3673" fill="#F1F1F1" rx="58.1543" ry="26.0473" style="stroke:#181818;stroke-width:0.5;"/><text fill="#000000" font-family="sans-serif" font-size="14" lengthAdjust="spacing" textLength="66" x="218.6543" y="184.0655">Dados da</text><text fill="#000000" font-family="sans-serif" font-size="14" lengthAdjust="spacing" textLength="42" x="230.6543" y="200.3624">seção</text></g><g id="elem_dados_subsecao"><ellipse cx="251.5685" cy="276.3673" fill="#F1F1F1" rx="59.5685" ry="26.0473" style="stroke:#181818;stroke-width:0.5;"/><text fill="#000000" font-family="sans-serif" font-size="14" lengthAdjust="spacing" textLength="66" x="218.5685" y="271.0655">Dados da</text><text fill="#000000" font-family="sans-serif" font-size="14" lengthAdjust="spacing" textLength="68" x="217.5685" y="287.3624">subseção</text></g><g id="elem_dados_jovem"><ellipse cx="251.3614" cy="363.3673" fill="#F1F1F1" rx="58.8614" ry="26.0473" style="stroke:#181818;stroke-width:0.5;"/><text fill="#000000" font-family="sans-serif" font-size="14" lengthAdjust="spacing" textLength="67" x="217.8614" y="358.0655">Dados do</text><text fill="#000000" font-family="sans-serif" font-size="14" lengthAdjust="spacing" textLength="41" x="230.8614" y="374.3624">jovem</text></g><g id="elem_timeline_secao"><ellipse cx="251.5118" cy="754.2224" fill="#F1F1F1" rx="122.5118" ry="26.9024" style="stroke:#181818;stroke-width:0.5;"/><text fill="#000000" font-family="sans-serif" font-size="14" lengthAdjust="spacing" textLength="160" x="168.5118" y="749.8215">Timeline de conquistas</text><text fill="#000000" font-family="sans-serif" font-size="14" lengthAdjust="spacing" textLength="63" x="217.0118" y="766.1184">da seção</text></g><g id="elem_timeline_jovem"><ellipse cx="251.5118" cy="578.2224" fill="#F1F1F1" rx="122.5118" ry="26.9024" style="stroke:#181818;stroke-width:0.5;"/><text fill="#000000" font-family="sans-serif" font-size="14" lengthAdjust="spacing" textLength="160" x="168.5118" y="573.8215">Timeline de conquistas</text><text fill="#000000" font-family="sans-serif" font-size="14" lengthAdjust="spacing" textLength="63" x="217.0118" y="590.1184">do jovem</text></g><g id="elem_analise_historica_jovem"><ellipse cx="251.6007" cy="666.4775" fill="#F1F1F1" rx="91.1007" ry="26.1575" style="stroke:#181818;stroke-width:0.5;"/><text fill="#000000" font-family="sans-serif" font-size="14" lengthAdjust="spacing" textLength="112" x="192.6007" y="662.0766">Análise Histórica</text><text fill="#000000" font-family="sans-serif" font-size="14" lengthAdjust="spacing" textLength="63" x="217.1007" y="678.3735">do jovem</text></g><g id="elem_cadastro_atividades"><ellipse cx="251.3823" cy="969.3673" fill="#F1F1F1" rx="70.8823" ry="26.0473" style="stroke:#181818;stroke-width:0.5;"/><text fill="#000000" font-family="sans-serif" font-size="14" lengthAdjust="spacing" textLength="84" x="209.3823" y="964.0655">Cadastro de</text><text fill="#000000" font-family="sans-serif" font-size="14" lengthAdjust="spacing" textLength="69" x="216.8823" y="980.3624">atividades</text></g><g id="elem_cadastro_encontros"><ellipse cx="251.3823" cy="882.3673" fill="#F1F1F1" rx="70.8823" ry="26.0473" style="stroke:#181818;stroke-width:0.5;"/><text fill="#000000" font-family="sans-serif" font-size="14" lengthAdjust="spacing" textLength="84" x="209.3823" y="877.0655">Cadastro de</text><text fill="#000000" font-family="sans-serif" font-size="14" lengthAdjust="spacing" textLength="71" x="215.8823" y="893.3624">encontros</text></g><!--MD5=[5295c0bdf0467b1c5e753e12badf3c72]
entity escotista--><g id="elem_escotista"><ellipse cx="37.5" cy="420.82" fill="#F1F1F1" rx="8" ry="8" style="stroke:#181818;stroke-width:0.5;"/><path d="M37.5,428.82 L37.5,455.82 M24.5,436.82 L50.5,436.82 M37.5,455.82 L24.5,470.82 M37.5,455.82 L50.5,470.82 " fill="none" style="stroke:#181818;stroke-width:0.5;"/><text fill="#000000" font-family="sans-serif" font-size="14" lengthAdjust="spacing" textLength="63" x="6" y="485.3151">Escotista</text></g><!--MD5=[b542d946444dc15ae6e5d0296693e652]
link dados_ge to login--><g id="link_dados_ge_login"><path d="M342.02,450.32 C368.95,450.32 397.75,450.32 421.96,450.32 " fill="none" id="dados_ge-to-login" style="stroke:#181818;stroke-width:1.0;"/><polygon fill="none" points="422.31,443.32,442.31,450.32,422.31,457.32,422.31,443.32" style="stroke:#181818;stroke-width:1.0;"/></g><!--MD5=[4eae0a4e6991c4ce7e5a34839fc71cce]
link dados_secao to login--><g id="link_dados_secao_login"><path d="M309.47,191.06 C340.58,195.23 376.96,205.98 398,232.32 C423.85,264.68 386.6,384.15 410,418.32 C414.76,425.27 421.43,430.74 428.77,435.04 " fill="none" id="dados_secao-to-login" style="stroke:#181818;stroke-width:1.0;"/><polygon fill="none" points="431.71,428.69,447.07,443.29,425.96,441.46,431.71,428.69" style="stroke:#181818;stroke-width:1.0;"/></g><!--MD5=[772267c9266478d4b6027c09c386ad0a]
link dados_subsecao to login--><g id="link_dados_subsecao_login"><path d="M310.74,278.77 C341.27,283.25 376.65,294.08 398,319.32 C426.62,353.16 383.94,382.47 410,418.32 C414.95,425.13 421.72,430.54 429.09,434.81 " fill="none" id="dados_subsecao-to-login" style="stroke:#181818;stroke-width:1.0;"/><polygon fill="none" points="432.04,428.46,447.39,443.07,426.28,441.22,432.04,428.46" style="stroke:#181818;stroke-width:1.0;"/></g><!--MD5=[cde4db59cc8baeaaf423a8d8d397f96e]
link dados_jovem to login--><g id="link_dados_jovem_login"><path d="M306.96,372.67 C335.47,379.19 370.15,389.76 398,406.32 C404.48,410.17 403.82,414 410,418.32 C417.31,423.42 425.56,428.06 433.75,432.12 " fill="none" id="dados_jovem-to-login" style="stroke:#181818;stroke-width:1.0;"/><polygon fill="none" points="436.93,425.88,452.27,440.51,431.16,438.64,436.93,425.88" style="stroke:#181818;stroke-width:1.0;"/></g><!--MD5=[eb12257e978ce6e38ad347ea691ddaa6]
link timeline_secao to login--><g id="link_timeline_secao_login"><path d="M350.55,738.27 C368.07,731.67 384.89,722.39 398,709.32 C459.6,647.91 474.48,540.37 477.99,485.17 " fill="none" id="timeline_secao-to-login" style="stroke:#181818;stroke-width:1.0;"/><polygon fill="none" points="471,484.67,478.9,465.01,484.99,485.3,471,484.67" style="stroke:#181818;stroke-width:1.0;"/></g><!--MD5=[3d96510650b87b9986ca4ea1a8f46df3]
link timeline_jovem to login--><g id="link_timeline_jovem_login"><path d="M296.98,553.18 C338.83,529.53 400.85,494.49 440.59,472.02 " fill="none" id="timeline_jovem-to-login" style="stroke:#181818;stroke-width:1.0;"/><polygon fill="none" points="437.27,465.86,458.13,462.11,444.16,478.05,437.27,465.86" style="stroke:#181818;stroke-width:1.0;"/></g><!--MD5=[14bd1d52298c62fc8c80e11f04b1b6b6]
link analise_historica_jovem to login--><g id="link_analise_historica_jovem_login"><path d="M333.26,654.6 C356.18,648.11 379.82,638.01 398,622.32 C439.87,586.17 461.63,523.65 471.67,484.77 " fill="none" id="analise_historica_jovem-to-login" style="stroke:#181818;stroke-width:1.0;"/><polygon fill="none" points="464.87,483.1,476.24,465.22,478.5,486.29,464.87,483.1" style="stroke:#181818;stroke-width:1.0;"/></g><!--MD5=[8d2003faf18d69d1049632b936ebe036]
link cadastro_atividades to login--><g id="link_cadastro_atividades_login"><path d="M321.35,964.53 C348.93,959.07 378.68,948.09 398,926.32 C456.29,860.66 473.42,583.77 477.72,485.27 " fill="none" id="cadastro_atividades-to-login" style="stroke:#181818;stroke-width:1.0;"/><polygon fill="none" points="470.74,484.7,478.53,465,484.73,485.26,470.74,484.7" style="stroke:#181818;stroke-width:1.0;"/></g><!--MD5=[0d9f93c43dbc307ddf5445bf99944c83]
link cadastro_encontros to login--><g id="link_cadastro_encontros_login"><path d="M303.57,864.6 C335.37,851 374.55,829.1 398,797.32 C469.13,700.92 479,551.78 479.58,484.87 " fill="none" id="cadastro_encontros-to-login" style="stroke:#181818;stroke-width:1.0;"/><polygon fill="none" points="472.58,484.89,479.49,464.86,486.58,484.82,472.58,484.89" style="stroke:#181818;stroke-width:1.0;"/></g><!--MD5=[c265cb76565636a54268ba80a1272cda]
link escotista to login--><g id="link_escotista_login"><path d="M41.08,412.23 C46.96,338.4 64.14,180.19 105,147.32 C206.47,65.7 303.9,57.3 398,147.32 C419.78,168.16 393.22,393.28 410,418.32 C417.46,429.46 429.86,436.79 442.1,441.59 " fill="none" id="escotista-to-login" style="stroke:#181818;stroke-width:1.0;"/><polygon fill="#181818" points="446.96,443.37,439.8822,436.5213,442.2644,441.6521,437.1336,444.0343,446.96,443.37" style="stroke:#181818;stroke-width:1.0;"/></g><!--MD5=[ee54f0eed41f30d944a483e77a7e9ce7]
link escotista to logout--><g id="link_escotista_logout"><path d="M39.61,412.22 C42.95,327.99 55.96,130.15 105,89.32 C205.07,6 294.51,10.28 398,89.32 C443.15,123.8 469.17,305.82 476.7,366.57 " fill="none" id="escotista-to-logout" style="stroke:#181818;stroke-width:1.0;"/><polygon fill="#181818" points="477.33,371.73,480.1961,362.3074,476.7168,366.7677,472.2565,363.2885,477.33,371.73" style="stroke:#181818;stroke-width:1.0;"/></g><!--MD5=[cd32dfdc0c61f7a74961361b140048e6]
link escotista to dados_ge--><g id="link_escotista_dados_ge"><path d="M69.33,450.32 C92.12,450.32 124.48,450.32 155.55,450.32 " fill="none" id="escotista-to-dados_ge" style="stroke:#181818;stroke-width:1.0;"/><polygon fill="#181818" points="160.93,450.32,151.93,446.32,155.93,450.32,151.93,454.32,160.93,450.32" style="stroke:#181818;stroke-width:1.0;"/></g><!--MD5=[a6b324f415ee1310b97f1f46b138e560]
link escotista to dados_secao--><g id="link_escotista_dados_secao"><path d="M39.58,412.05 C43.03,363.6 56.24,280.65 105,232.32 C127.19,210.32 160.06,199.48 188.95,194.17 " fill="none" id="escotista-to-dados_secao" style="stroke:#181818;stroke-width:1.0;"/><polygon fill="#181818" points="193.92,193.31,184.361,190.9381,188.9964,194.1806,185.7539,198.8159,193.92,193.31" style="stroke:#181818;stroke-width:1.0;"/></g><!--MD5=[c323262122ba1bd084a6e010107b2c40]
link escotista to dados_subsecao--><g id="link_escotista_dados_subsecao"><path d="M48.83,412.04 C58.65,382.67 76.28,343.23 105,319.32 C128.35,299.89 160.18,289.24 188.13,283.4 " fill="none" id="escotista-to-dados_subsecao" style="stroke:#181818;stroke-width:1.0;"/><polygon fill="#181818" points="193.3,282.36,183.6879,280.2135,188.3982,283.3461,185.2656,288.0564,193.3,282.36" style="stroke:#181818;stroke-width:1.0;"/></g><!--MD5=[332595020d17a6172ad9ef7b7f129e9e]
link escotista to dados_jovem--><g id="link_escotista_dados_jovem"><path d="M69.17,427.27 C80.07,419.84 92.7,412.05 105,406.32 C132.98,393.28 165.84,383.17 193.25,376.04 " fill="none" id="escotista-to-dados_jovem" style="stroke:#181818;stroke-width:1.0;"/><polygon fill="#181818" points="198.3,374.74,188.5882,373.1028,193.4569,375.9829,190.5768,380.8517,198.3,374.74" style="stroke:#181818;stroke-width:1.0;"/></g><!--MD5=[8e1a523088a1a5017fa2a44a8f89922c]
link escotista to timeline_secao--><g id="link_escotista_timeline_secao"><path d="M43.68,488.49 C53.09,552.52 74.86,677.68 105,709.32 C116.49,721.38 131.13,730.23 146.68,736.72 " fill="none" id="escotista-to-timeline_secao" style="stroke:#181818;stroke-width:1.0;"/><polygon fill="#181818" points="151.53,738.66,144.6593,731.6036,146.8876,736.803,141.6881,739.0314,151.53,738.66" style="stroke:#181818;stroke-width:1.0;"/></g><!--MD5=[11e6afa1a1a3f623f4dfbb88d8a2bf42]
link escotista to timeline_jovem--><g id="link_escotista_timeline_jovem"><path d="M69.17,469.96 C80.4,477.07 93.23,485.13 105,492.32 C137.32,512.07 174.04,533.77 202.51,550.43 " fill="none" id="escotista-to-timeline_jovem" style="stroke:#181818;stroke-width:1.0;"/><polygon fill="#181818" points="207.01,553.06,201.2482,545.0724,202.6901,550.5424,197.2201,551.9843,207.01,553.06" style="stroke:#181818;stroke-width:1.0;"/></g><!--MD5=[32816bac71ec3794d60f928d066830c2]
link escotista to analise_historica_jovem--><g id="link_escotista_analise_historica_jovem"><path d="M43.43,488.6 C50.44,527.54 66.97,587.05 105,622.32 C121.28,637.42 142.58,647.35 163.83,653.87 " fill="none" id="escotista-to-analise_historica_jovem" style="stroke:#181818;stroke-width:1.0;"/><polygon fill="#181818" points="168.65,655.29,161.1526,648.9033,163.855,653.873,158.8854,656.5753,168.65,655.29" style="stroke:#181818;stroke-width:1.0;"/></g><!--MD5=[e4b61ec747a79ee3fc18d54d48f30202]
link escotista to cadastro_atividades--><g id="link_escotista_cadastro_atividades"><path d="M38.68,488.4 C39.92,589.4 48.56,860.81 105,926.32 C122.81,946.99 150.03,957.98 176.13,963.73 " fill="none" id="escotista-to-cadastro_atividades" style="stroke:#181818;stroke-width:1.0;"/><polygon fill="#181818" points="181.33,964.81,173.331,959.0641,176.4344,963.7937,171.7048,966.8971,181.33,964.81" style="stroke:#181818;stroke-width:1.0;"/></g><!--MD5=[60779a6fa2c7b20d9aaadef70c124d9f]
link escotista to cadastro_encontros--><g id="link_escotista_cadastro_encontros"><path d="M41.82,488.35 C49.38,567.73 69.97,747.81 105,797.32 C126.57,827.81 162.81,849.03 193.73,862.64 " fill="none" id="escotista-to-cadastro_encontros" style="stroke:#181818;stroke-width:1.0;"/><polygon fill="#181818" points="198.64,864.76,191.9623,857.5206,194.0495,862.7784,188.7917,864.8655,198.64,864.76" style="stroke:#181818;stroke-width:1.0;"/></g><!--MD5=[00b5c3b07ec7ff1236b6c3be9b4d3dc7]
@startuml escoteirando_portal_uc
left to right direction
:Escotista: as escotista

package Acesso {
usecase (Login) as login
usecase (Logout) as logout
}
package UE {
    usecase (Dados do\nGrupo Escoteiro) as dados_ge
usecase (Dados da\nseção) as dados_secao
usecase (Dados da\nsubseção) as dados_subsecao
usecase (Dados do\njovem) as dados_jovem
}
dados_ge - -|> login
dados_secao - -|> login
dados_subsecao - -|> login
dados_jovem - -|> login

package "Business Inteligence" {
    usecase (Timeline de conquistas\nda seção) as timeline_secao
    usecase (Timeline de conquistas\ndo jovem) as timeline_jovem
    usecase (Análise Histórica\ndo jovem) as analise_historica_jovem
}
timeline_secao - -|> login
timeline_jovem - -|> login
analise_historica_jovem - -|> login

package "Banco de dados de atividades" {    
    usecase (Cadastro de\natividades) as cadastro_atividades
    usecase (Cadastro de\nencontros) as cadastro_encontros        
}
cadastro_atividades - -|> login
cadastro_encontros - -|> login

escotista - -> login
escotista - -> logout

escotista - -> dados_ge
escotista - -> dados_secao
escotista - -> dados_subsecao
escotista - -> dados_jovem

escotista - -> timeline_secao
escotista - -> timeline_jovem
escotista - -> analise_historica_jovem

escotista - -> cadastro_atividades
escotista - -> cadastro_encontros
@enduml

PlantUML version 1.2022.7(Mon Aug 22 14:01:30 BRT 2022)
(GPL source distribution)
Java Runtime: OpenJDK Runtime Environment
JVM: OpenJDK 64-Bit Server VM
Default Encoding: UTF-8
Language: pt
Country: BR
--></g></svg>